<?xml version="1.0" standalone="no"?>
<!DOCTYPE svg PUBLIC "-//W3C//DTD SVG 20010904//EN"
 "http://www.w3.org/TR/2001/REC-SVG-20010904/DTD/svg10.dtd">
<svg version="1.0" xmlns="http://www.w3.org/2000/svg"
 width="1436.000000pt" height="1436.000000pt" viewBox="0 0 1436.000000 1436.000000"
 preserveAspectRatio="xMidYMid meet">

<g transform="translate(0.000000,1436.000000) scale(0.100000,-0.100000)"
fill="#000000" stroke="none">
<path d="M6775 13689 c-197 -14 -478 -48 -661 -79 -1647 -278 -3134 -1186
-4144 -2531 -1294 -1725 -1655 -3974 -968 -6024 421 -1256 1237 -2377 2308
-3172 1452 -1079 3274 -1505 5070 -1187 1047 185 2061 643 2905 1312 301 239
668 593 919 887 830 972 1363 2180 1515 3435 40 325 46 439 45 825 0 409 -12
594 -60 925 -261 1824 -1283 3459 -2809 4493 -814 551 -1730 910 -2695 1056
-327 49 -509 63 -915 66 -214 2 -444 -1 -510 -6z m860 -439 c1879 -130 3579
-1110 4648 -2680 85 -125 219 -341 215 -346 -2 -1 -29 3 -61 8 l-59 10 -51 82
c-531 843 -1237 1530 -2082 2026 -171 100 -551 288 -740 366 -587 241 -1206
386 -1855 434 -176 13 -681 13 -868 0 -1278 -91 -2480 -586 -3478 -1434 -295
-250 -667 -651 -912 -981 -908 -1224 -1316 -2745 -1142 -4266 187 -1637 1040
-3123 2366 -4120 1065 -800 2365 -1221 3699 -1196 400 8 669 35 1030 103 1071
201 2060 691 2880 1425 958 858 1615 1994 1875 3244 68 326 104 622 121 992
28 571 -51 1277 -199 1803 l-19 65 31 57 c17 32 34 58 37 58 12 0 98 -329 138
-526 91 -448 127 -853 118 -1344 -6 -309 -12 -400 -43 -650 -175 -1426 -879
-2779 -1955 -3755 -946 -858 -2112 -1394 -3369 -1549 -257 -32 -404 -40 -735
-40 -333 -1 -491 8 -755 40 -2043 250 -3829 1522 -4744 3379 -332 674 -522
1345 -603 2130 -25 244 -25 879 0 1125 50 488 136 905 279 1340 500 1527 1603
2813 3043 3549 980 501 2087 727 3190 651z m-105 -140 c1420 -79 2699 -624
3755 -1600 365 -337 759 -817 1004 -1222 l23 -38 -64 0 c-120 0 -288 -20 -470
-56 -218 -42 -211 -43 -598 21 l-275 45 -50 58 c-961 1103 -2353 1717 -3800
1679 -1271 -34 -2430 -532 -3325 -1427 -806 -806 -1288 -1826 -1406 -2975 -21
-206 -24 -683 -5 -885 51 -552 193 -1098 415 -1600 80 -180 272 -519 393 -695
l48 -70 3997 -3 3997 -2 75 114 c455 692 727 1493 787 2321 15 208 6 702 -16
890 -19 164 -58 396 -85 513 -11 46 -20 90 -20 98 0 22 38 32 194 55 232 33
368 74 539 161 100 52 257 165 296 214 12 15 24 25 27 21 17 -16 103 -406 138
-627 94 -580 99 -1206 15 -1785 -182 -1260 -747 -2405 -1639 -3319 -985 -1010
-2266 -1626 -3684 -1772 -210 -21 -727 -29 -956 -15 -1155 75 -2266 484 -3185
1175 -323 242 -740 635 -985 926 -710 844 -1168 1844 -1340 2920 -80 507 -93
1066 -34 1595 121 1105 562 2167 1265 3046 546 683 1221 1230 2000 1619 754
378 1525 577 2409 623 140 8 392 6 560 -3z m-15 -2231 c229 -53 967 -238 1425
-358 230 -60 334 -80 790 -155 289 -47 797 -131 1130 -186 333 -55 624 -100
648 -100 l42 0 -7 -57 c-5 -32 -8 -173 -7 -313 0 -209 4 -281 22 -395 43 -278
123 -543 243 -807 l58 -128 -72 -42 c-40 -23 -223 -130 -407 -238 -184 -108
-640 -376 -1014 -595 -377 -221 -795 -474 -940 -570 -504 -332 -856 -548
-1191 -732 -104 -57 -212 -111 -240 -120 -27 -8 -91 -18 -141 -20 -129 -7
-179 11 -261 93 -35 34 -63 66 -63 71 0 4 35 23 78 42 138 61 691 336 917 456
245 131 590 322 825 458 l155 89 74 -6 74 -6 211 119 c116 65 237 134 268 152
l57 32 -66 126 c-36 69 -69 129 -72 133 -3 3 -109 -42 -236 -101 l-229 -108
-13 -67 c-14 -77 -45 -136 -100 -189 -103 -99 -1247 -717 -1817 -981 l-190
-87 -70 17 c-80 20 -205 80 -255 124 -19 16 -33 31 -30 33 2 2 54 23 114 47
96 37 367 164 865 403 689 330 1280 637 1280 663 0 3 -3 3 -7 1 -5 -3 -66 -30
-138 -60 -71 -30 -330 -154 -575 -275 -245 -120 -492 -242 -550 -270 -58 -27
-177 -85 -265 -127 -88 -42 -241 -115 -340 -162 -99 -47 -229 -112 -288 -145
l-108 -60 -25 23 c-33 31 -90 149 -108 224 -8 33 -16 91 -18 128 l-3 69 180
53 c392 116 889 287 1352 466 245 94 654 262 778 319 100 46 165 39 249 -25
l33 -25 54 24 c30 13 113 52 184 86 72 34 151 71 178 82 26 11 47 24 47 29 0
5 -22 61 -48 126 -27 65 -57 143 -67 173 -10 30 -19 58 -21 62 -4 7 -33 -2
-316 -92 l-168 -54 0 -62 c0 -70 -16 -124 -55 -182 -25 -37 -41 -46 -238 -130
-645 -274 -1341 -529 -1942 -711 l-199 -60 -68 28 c-80 34 -153 86 -207 147
-39 45 -99 149 -91 158 3 2 64 18 135 34 72 17 315 84 540 151 226 66 664 195
975 286 490 144 887 272 876 282 -2 2 -73 -12 -158 -31 -174 -39 -2072 -593
-2248 -656 -63 -23 -119 -42 -124 -43 -26 -5 -48 191 -35 314 5 51 13 97 17
101 4 4 102 25 217 48 616 122 1472 325 2175 518 l215 59 40 -20 c21 -11 63
-44 92 -74 l54 -54 177 56 c97 31 204 65 238 76 l61 20 -32 117 c-18 64 -40
155 -50 202 -10 47 -21 89 -26 94 -4 4 -92 -6 -196 -23 -264 -44 -243 -38
-243 -72 0 -39 -33 -123 -65 -164 -43 -57 -107 -94 -218 -125 -492 -137 -1198
-312 -1712 -425 -272 -60 -692 -145 -713 -145 -21 0 -164 145 -207 210 -46 70
-90 172 -96 225 l-4 30 185 16 c237 22 957 128 1856 274 363 59 732 134 705
143 -23 8 -327 -31 -611 -78 -466 -77 -1187 -189 -1720 -265 -63 -9 -180 -30
-259 -46 -79 -16 -148 -29 -153 -29 -14 0 -9 170 7 238 23 99 74 221 98 236
12 8 47 16 77 20 845 98 1568 158 2365 197 235 11 252 11 285 -6 59 -31 99
-65 132 -116 21 -33 38 -49 52 -49 34 1 406 66 412 73 3 3 -1 59 -10 124 -8
65 -19 160 -22 212 l-7 94 -150 -7 c-83 -3 -181 -6 -218 -6 l-68 0 -21 -47
c-30 -67 -64 -109 -124 -149 l-52 -34 -350 -20 c-865 -49 -1712 -121 -2218
-189 l-58 -8 -28 38 c-77 106 -145 276 -151 379 l-4 55 285 6 c157 3 506 12
776 19 379 9 600 10 970 1 578 -13 781 -14 768 -2 -12 11 -176 28 -384 40
-594 35 -1866 15 -2277 -34 -67 -8 -126 -15 -132 -15 -21 0 8 147 45 227 25
54 71 121 122 175 34 37 53 48 85 53 98 15 874 -22 1377 -65 412 -35 1151
-115 1211 -131 46 -12 103 -73 134 -144 l23 -52 79 4 c43 1 139 6 214 9 l136
6 9 179 c5 98 9 179 9 180 0 1 -97 9 -215 19 l-215 18 -38 -44 c-21 -24 -58
-56 -83 -70 l-44 -26 -172 21 c-830 99 -1756 171 -2212 171 l-177 0 -16 38
c-97 229 -25 439 204 592 46 30 86 50 103 50 108 0 1323 -244 2045 -410 332
-77 318 -70 370 -171 l23 -45 179 -13 c98 -7 196 -15 218 -18 l40 -5 22 138
c13 76 20 140 18 143 -3 2 -101 19 -217 37 l-213 32 -64 -46 -64 -45 -141 32
c-782 178 -1473 322 -1953 407 -135 24 -213 42 -213 50 0 21 28 78 58 119 31
44 122 98 188 114 94 22 190 13 419 -40z m4908 -734 c251 -44 475 -259 575
-551 62 -180 69 -427 18 -579 -37 -109 -77 -175 -154 -257 -136 -144 -364
-262 -607 -314 -72 -15 -256 -43 -287 -44 -35 0 -167 302 -234 533 -80 275
-115 528 -115 812 0 164 11 318 24 331 6 7 308 65 381 73 114 13 314 11 399
-4z m-6810 -1796 c56 -29 178 -101 175 -104 -2 -1 -73 -27 -159 -58 -167 -60
-383 -155 -706 -312 l-202 -98 -298 57 c-164 31 -310 56 -325 56 -47 0 -40 18
17 39 272 102 651 228 920 305 215 62 491 134 518 135 10 1 37 -9 60 -20z
m183 -171 c-3 -29 -8 -92 -12 -139 -4 -57 -12 -96 -24 -117 -47 -77 -396 -347
-785 -608 -318 -213 -435 -288 -441 -282 -2 3 7 30 20 61 14 30 62 174 106
319 45 145 86 278 92 297 10 32 23 40 222 136 116 57 277 132 358 168 80 37
213 100 295 141 81 41 154 75 161 75 10 1 12 -12 8 -51z m-1745 -317 c35 -10
177 -40 314 -66 138 -25 256 -48 264 -51 8 -3 -84 -58 -205 -123 -120 -65
-232 -126 -249 -136 -29 -17 -38 -16 -340 35 -276 46 -520 74 -504 57 14 -16
217 -60 449 -97 140 -23 263 -44 273 -48 13 -5 -15 -26 -115 -86 -314 -187
-605 -394 -718 -511 -35 -36 18 -4 245 148 317 211 604 391 612 383 3 -2 -54
-130 -125 -283 -72 -153 -143 -314 -158 -358 -15 -44 -32 -86 -37 -92 -22 -30
-304 -5 -437 38 -75 24 -187 86 -195 107 -3 8 -10 58 -15 111 -12 113 -1 246
30 366 26 101 101 254 149 303 40 43 148 95 441 216 102 42 199 83 215 91 39
18 33 18 106 -4z m569 -416 c-44 -142 -88 -298 -97 -348 l-17 -89 -51 -32
c-217 -139 -675 -370 -675 -340 0 4 22 43 49 88 26 44 113 220 191 389 l144
308 65 38 c136 78 464 251 468 247 2 -1 -33 -119 -77 -261z m1346 -181 c51
-31 92 -60 89 -64 -2 -4 -62 -40 -132 -80 -71 -40 -275 -171 -455 -291 l-328
-219 -57 0 c-32 0 -152 7 -268 16 -115 8 -273 15 -349 15 -164 0 -169 -10 64
114 360 192 757 369 1220 543 86 33 110 29 216 -34z m102 -221 c-3 -107 -9
-156 -20 -178 -15 -28 -431 -438 -558 -550 -30 -27 -122 -112 -205 -190 -210
-198 -355 -328 -360 -323 -3 3 8 36 23 74 16 38 66 206 113 373 l84 303 340
229 c187 126 394 269 460 318 66 49 122 90 124 90 2 1 2 -65 -1 -146z m-3568
-353 c95 -12 269 -46 278 -54 2 -3 -1 -13 -9 -23 -11 -14 -11 -15 0 -9 10 6
12 4 8 -10 -4 -11 -13 -48 -21 -84 -62 -271 -197 -640 -235 -640 -9 0 -60 205
-86 343 -20 106 -32 85 139 231 66 55 134 114 150 130 l31 29 -35 -25 c-19
-13 -95 -66 -168 -118 -98 -68 -136 -90 -142 -80 -8 12 -26 138 -37 258 -7 72
-15 69 127 52z m1890 -75 c47 -9 215 -24 374 -35 159 -11 290 -21 292 -23 2
-1 -113 -83 -256 -181 l-259 -178 -366 2 c-360 1 -539 -6 -530 -20 9 -14 156
-23 485 -29 l335 -6 -65 -46 c-472 -333 -688 -494 -760 -567 -46 -46 277 165
584 382 153 108 280 196 281 194 2 -2 -46 -133 -106 -293 -99 -262 -133 -362
-168 -492 -11 -40 -14 -43 -45 -43 -54 0 -216 31 -301 57 -96 30 -220 92 -269
136 -31 27 -39 43 -51 102 -48 225 -14 538 67 615 42 40 277 202 433 297 72
44 153 94 180 111 28 17 52 31 55 31 3 1 43 -6 90 -14z m625 -350 c-36 -131
-68 -241 -70 -245 -2 -3 -11 -48 -20 -100 -8 -52 -18 -107 -21 -123 -11 -53
-468 -419 -621 -496 -23 -11 -44 -21 -47 -21 -2 0 19 51 48 113 29 61 108 261
175 443 l124 330 246 171 c135 94 247 169 249 168 2 -1 -27 -110 -63 -240z
m-1955 -905 c74 -5 159 -13 189 -16 l54 -7 -6 -101 c-16 -244 -82 -494 -168
-627 l-33 -52 -18 23 c-27 33 -142 226 -174 292 l-28 58 114 107 c63 59 151
143 195 186 71 70 57 61 -122 -82 -111 -89 -205 -161 -208 -161 -12 0 -165
349 -165 375 0 16 187 18 370 5z"/>
<path d="M6632 12522 c-67 -170 -122 -311 -122 -315 0 -9 66 -7 99 2 18 5 29
22 48 73 l25 67 51 5 c29 4 101 7 161 9 l109 2 34 -62 35 -63 59 0 c38 0 59 4
59 12 0 6 -71 139 -157 294 l-158 283 -60 1 -60 0 -123 -308z m256 62 c34 -64
61 -118 59 -121 -2 -2 -54 -6 -116 -10 l-112 -6 32 84 c17 46 38 103 46 127 8
23 18 42 22 42 4 0 35 -52 69 -116z"/>
<path d="M7986 12759 c-27 -120 -104 -565 -98 -570 8 -7 389 -79 419 -79 13 0
23 8 27 23 6 22 8 67 4 67 -18 0 -311 59 -315 63 -4 5 69 425 83 478 5 19 -6
25 -69 34 -43 7 -46 5 -51 -16z"/>
<path d="M5482 12591 c-74 -22 -149 -70 -182 -119 -32 -46 -34 -129 -4 -169
48 -64 61 -68 236 -68 156 0 160 -1 179 -24 25 -31 24 -43 -6 -80 -40 -46
-104 -66 -217 -66 l-96 1 -6 -40 c-4 -21 -3 -43 3 -49 5 -5 38 -11 73 -14 136
-11 315 62 360 147 40 77 12 175 -62 213 -30 15 -57 17 -183 15 -146 -3 -149
-3 -168 21 -58 71 28 138 191 150 l85 6 3 39 c2 24 -2 42 -10 47 -22 14 -130
9 -196 -10z"/>
<path d="M9125 12178 c-70 -145 -129 -268 -132 -274 -4 -11 93 -61 102 -53 3
3 41 82 86 175 45 93 83 165 85 159 2 -5 12 -89 23 -185 21 -178 29 -200 68
-200 7 0 82 42 166 94 83 52 153 93 155 91 2 -2 -33 -79 -77 -171 -45 -92 -81
-168 -81 -170 0 -2 23 -15 50 -29 l50 -25 130 266 c72 147 130 271 130 275 0
5 -18 18 -41 30 l-41 21 -72 -45 c-39 -24 -126 -79 -194 -122 -68 -43 -127
-74 -131 -69 -5 5 -19 110 -32 232 l-23 224 -38 19 c-20 10 -41 19 -46 19 -5
0 -66 -118 -137 -262z"/>
<path d="M4385 12115 c-22 -14 -39 -31 -37 -37 4 -16 258 -479 276 -503 13
-18 15 -18 60 9 25 15 46 31 46 36 0 20 -279 515 -291 517 -8 2 -32 -9 -54
-22z"/>
<path d="M10447 11375 c-111 -132 -187 -231 -184 -239 8 -21 75 -69 86 -61 9
5 316 369 370 438 12 16 10 21 -25 52 -21 19 -43 34 -49 35 -5 0 -95 -101
-198 -225z"/>
<path d="M3546 11556 l-40 -33 162 -204 c89 -112 174 -219 189 -237 l28 -34
48 37 47 36 -73 92 c-40 51 -124 156 -186 235 -62 78 -118 142 -124 142 -7 0
-30 -15 -51 -34z"/>
<path d="M11469 4177 c-104 -29 -188 -103 -237 -207 -21 -45 -26 -70 -27 -135
0 -91 20 -145 76 -209 161 -184 442 -132 551 101 79 168 7 357 -164 433 -59
26 -142 33 -199 17z m162 -135 c38 -19 64 -43 87 -77 32 -47 34 -54 30 -121
-3 -57 -9 -79 -31 -112 -83 -126 -252 -136 -350 -21 -60 70 -71 144 -33 224
59 125 180 168 297 107z"/>
<path d="M2865 4142 c-107 -50 -122 -133 -55 -301 43 -107 49 -150 24 -175
-21 -22 -76 -20 -106 4 -42 32 -87 112 -105 184 l-16 68 -41 -7 c-23 -3 -45
-10 -49 -14 -5 -5 -2 -37 7 -71 48 -186 197 -322 318 -290 50 14 104 62 119
107 15 47 6 95 -41 212 -22 55 -40 110 -40 123 0 55 72 80 122 42 41 -30 87
-104 100 -162 14 -56 15 -57 72 -41 37 10 38 12 32 47 -14 91 -109 227 -185
266 -50 26 -110 29 -156 8z"/>
<path d="M3467 3968 c43 -51 131 -147 195 -213 l117 -120 1 213 0 212 -196 0
-195 0 78 -92z"/>
<path d="M3920 3780 l0 -279 113 -95 c61 -53 157 -129 212 -171 l100 -75 267
0 268 0 0 450 0 450 -480 0 -480 0 0 -280z"/>
<path d="M5030 3610 l0 -450 500 0 500 0 0 450 0 450 -500 0 -500 0 0 -450z"/>
<path d="M6180 3610 l0 -450 485 0 485 0 0 450 0 450 -485 0 -485 0 0 -450z"/>
<path d="M7300 3610 l0 -450 485 0 485 0 0 450 0 450 -485 0 -485 0 0 -450z"/>
<path d="M8410 3610 l0 -450 470 0 470 0 0 450 0 450 -470 0 -470 0 0 -450z"/>
<path d="M9500 3610 l0 -450 251 0 250 0 111 85 c62 46 156 122 210 167 l98
83 0 283 0 282 -460 0 -460 0 0 -450z"/>
<path d="M10570 3848 l1 -213 101 105 c98 103 258 283 272 308 6 9 -34 12
-183 12 l-191 0 0 -212z"/>
<path d="M3614 3205 c-156 -191 -179 -231 -179 -315 0 -77 19 -122 78 -181 56
-56 116 -89 175 -96 120 -14 169 19 335 221 70 86 127 159 127 165 0 5 -18 24
-41 42 -34 27 -42 30 -53 18 -7 -8 -63 -76 -125 -151 -122 -150 -153 -177
-211 -185 -78 -11 -170 71 -170 152 0 55 19 86 150 247 66 80 120 148 120 151
0 3 -20 21 -44 41 l-44 36 -118 -145z"/>
<path d="M10490 3203 c-96 -80 -188 -155 -204 -168 l-29 -23 29 -36 c16 -20
32 -36 37 -36 4 0 41 28 83 62 64 53 77 59 88 47 8 -8 82 -97 166 -199 84
-102 155 -186 159 -187 3 -1 25 14 48 35 l43 37 -165 200 c-91 110 -165 202
-165 205 0 3 34 34 75 68 81 68 83 73 33 119 l-23 21 -175 -145z"/>
<path d="M4574 3011 c5 -8 130 -83 249 -150 l57 -32 0 95 0 96 -156 0 c-85 0
-153 -4 -150 -9z"/>
<path d="M5030 2887 l0 -134 100 -47 c220 -103 534 -217 788 -285 l112 -30 0
315 0 314 -500 0 -500 0 0 -133z"/>
<path d="M6180 2691 c0 -305 1 -330 18 -335 41 -13 319 -56 456 -70 82 -9 227
-19 323 -23 l173 -6 0 381 0 382 -485 0 -485 0 0 -329z"/>
<path d="M7300 2640 l0 -380 43 0 c182 0 638 56 855 106 l72 16 0 319 0 319
-485 0 -485 0 0 -380z"/>
<path d="M8410 2720 c0 -200 3 -300 10 -300 18 0 238 66 350 105 137 48 338
130 473 193 l107 51 0 125 0 126 -470 0 -470 0 0 -300z"/>
<path d="M9500 2935 l0 -86 32 17 c57 30 248 145 248 149 0 3 -63 5 -140 5
l-140 0 0 -85z"/>
<path d="M4770 2601 c0 -4 -58 -128 -130 -275 -71 -147 -130 -269 -130 -272 0
-5 385 -194 395 -194 6 0 47 81 43 85 -2 2 -67 35 -146 74 -78 39 -142 72
-142 74 0 2 51 109 114 238 l114 234 -46 22 c-50 24 -72 28 -72 14z"/>
<path d="M9517 2564 c-45 -23 -47 -27 -43 -57 3 -18 10 -162 16 -322 6 -159
13 -300 16 -313 l5 -23 50 28 50 28 -2 78 c-1 43 0 79 2 81 2 2 64 34 137 71
l133 67 55 -43 c30 -23 57 -46 60 -50 6 -10 116 42 112 52 -4 10 -529 429
-537 429 -3 -1 -28 -12 -54 -26z m190 -214 c51 -41 89 -78 87 -82 -5 -8 -178
-98 -188 -98 -8 0 -14 56 -21 173 -7 126 -21 125 122 7z"/>
<path d="M5805 2188 c-4 -13 -88 -370 -121 -517 -13 -58 -14 -75 -4 -81 17
-11 89 -22 99 -15 5 2 14 33 21 68 6 35 15 68 18 74 7 11 105 73 115 73 3 0
40 -67 82 -149 l76 -148 60 -13 c33 -7 62 -11 64 -8 3 3 -35 88 -85 191 -49
102 -90 190 -90 195 0 5 68 55 151 111 83 57 148 105 146 108 -3 2 -29 11 -58
18 l-53 14 -81 -51 c-44 -28 -111 -72 -150 -98 -38 -25 -86 -56 -106 -68 l-36
-22 33 147 c19 81 34 150 34 154 0 6 -77 29 -100 29 -6 0 -13 -6 -15 -12z"/>
<path d="M8411 2164 c-164 -44 -234 -172 -161 -292 31 -50 77 -65 221 -72 149
-7 179 -20 179 -74 0 -37 -19 -58 -72 -80 -59 -25 -136 -30 -201 -13 -64 17
-63 18 -69 -58 -3 -28 0 -30 47 -43 31 -8 77 -11 122 -8 184 14 306 112 289
234 -7 55 -30 89 -77 117 -26 15 -61 21 -166 26 -156 8 -183 19 -183 73 0 69
91 112 217 103 78 -6 83 -2 83 64 0 22 -6 28 -31 33 -51 10 -140 6 -198 -10z"/>
<path d="M7043 1705 l-141 -315 62 0 63 0 27 70 28 70 157 0 157 0 31 -70 31
-70 62 0 c46 0 61 3 57 13 -33 78 -272 595 -280 605 -5 7 -32 12 -62 12 l-52
0 -140 -315z m255 53 c29 -68 52 -126 52 -130 0 -11 -208 -10 -214 1 -7 10 92
251 103 251 3 0 30 -55 59 -122z"/>
<path d="M6615 10315 c61 -13 272 -47 470 -75 519 -74 1019 -153 1450 -230
129 -23 337 -50 380 -49 32 1 -131 49 -250 73 -89 19 -727 128 -945 161 -596
92 -913 133 -1071 139 l-144 6 110 -25z"/>
<path d="M9841 10149 c-17 -77 -35 -208 -30 -214 4 -4 162 -17 589 -50 l76 -6
12 112 c7 61 11 112 10 113 -2 1 -133 22 -293 45 -159 24 -304 46 -321 48 -31
5 -32 4 -43 -48z"/>
<path d="M10626 10048 c-9 -44 -20 -178 -15 -179 70 -9 716 -55 720 -50 4 3 9
40 12 82 l6 76 -217 32 c-119 18 -255 38 -302 46 -47 8 -110 17 -141 20 l-56
7 -7 -34z"/>
<path d="M9785 9656 c-4 -91 -5 -168 -2 -173 3 -4 144 -3 314 4 169 6 320 12
334 12 l27 1 4 133 c2 72 3 134 2 135 -3 4 -584 51 -635 52 l-37 0 -7 -164z"/>
<path d="M10596 9730 c-8 -45 -8 -218 2 -223 7 -3 735 22 738 26 0 1 -2 40 -5
87 l-6 85 -270 21 c-148 12 -311 24 -361 28 l-91 8 -7 -32z"/>
<path d="M10955 9410 c-88 -4 -204 -8 -257 -9 l-98 -1 1 -57 c0 -32 6 -101 12
-153 9 -73 16 -95 28 -98 17 -3 718 114 726 121 4 4 -15 167 -23 195 -4 13
-103 14 -389 2z"/>
<path d="M10135 9380 c-88 -4 -202 -8 -254 -9 l-94 -1 7 -102 c7 -98 33 -308
39 -314 2 -3 659 106 664 110 1 0 -5 51 -13 111 -7 61 -13 134 -14 163 l0 52
-87 -2 c-49 -1 -160 -5 -248 -8z"/>
<path d="M11000 9039 c-184 -32 -338 -58 -342 -58 -14 -1 -9 -33 23 -163 18
-71 37 -128 42 -128 9 0 707 220 715 225 1 1 -8 43 -20 94 -22 90 -22 91 -53
90 -16 -1 -181 -28 -365 -60z"/>
<path d="M10185 8903 c-176 -30 -323 -58 -327 -62 -10 -9 78 -380 94 -396 2
-2 91 24 198 59 107 34 250 80 318 101 111 35 123 41 118 59 -3 12 -20 83 -38
159 -18 75 -35 137 -38 136 -3 -1 -149 -26 -325 -56z"/>
<path d="M11100 8696 c-307 -100 -345 -114 -342 -131 5 -31 93 -235 101 -235
4 0 155 70 336 155 182 85 334 156 338 158 5 1 -6 39 -24 85 -22 57 -37 82
-48 81 -9 -1 -171 -51 -361 -113z"/>
<path d="M11570 8543 c-8 -4 -78 -36 -155 -72 -77 -37 -222 -105 -322 -151
-100 -47 -182 -89 -183 -95 0 -9 93 -171 105 -183 2 -3 55 25 117 61 62 36
205 118 318 183 113 64 206 118 208 120 4 2 -67 145 -71 143 -1 0 -9 -3 -17
-6z"/>
<path d="M10565 8525 c-22 -7 -159 -51 -305 -98 -145 -47 -266 -89 -268 -95
-7 -23 121 -342 138 -342 15 0 605 279 603 285 -15 53 -110 265 -118 264 -5
-1 -28 -7 -50 -14z"/>
<path d="M10470 8029 c-162 -77 -296 -142 -298 -144 -4 -4 100 -210 120 -238
12 -16 37 -3 303 149 160 91 294 169 298 173 11 11 -101 201 -117 200 -6 0
-144 -64 -306 -140z"/>
</g>
</svg>
